/* XPM */
static char *d7c7e873d2d145cb937d15f041ef140317WwVFqRloUEXHqJ[] = {
/* columns rows colors chars-per-pixel */
"16 16 3 1 ",
"  c None",
". c black",
"X c #FFEC00",
/* pixels */
"     XXXXXX     ",
"   XXXXXXXXXX   ",
"  XXXXXXXXXXXX  ",
" XXXX..XXXXXXXX ",
" XXXX..XXXXXXXX ",
"XXXXXXXXXXXXXXX ",
"XXXXXXXXXXXXXXX ",
"XXXXXXXXXXXX    ",
"XXXXXXXXX       ",
"XXXXXXXXX       ",
"XXXXXXXXXXXX    ",
" XXXXXXXXXXXXXX ",
" XXXXXXXXXXXXXX ",
"  XXXXXXXXXXXX  ",
"   XXXXXXXXXX   ",
"     XXXXXX     "
};
